#!OML:ASF F:\VICON\USERDATA\INSTALL\rory3\rory3.ASF
:FULLY-SPECIFIED
:DEGREES
322
root 0.501402 16.358 -13.4947 29.6862 -3.48861 -1.9868
lowerback -16.3536 0.602995 -3.1319
upperback -12.2058 1.1561 -0.196557
thorax -3.95394 0.780801 1.69436
lowerneck -16.7334 -0.446738 -2.1349
upperneck 31.1796 0.499354 -1.33486
head 13.2747 -0.221829 -0.0731236
rclavicle -2.68359e-015 -2.38542e-015
rhumerus -65.2142 27.0445 -108.693
rradius 31.9615
rwrist -22.0412
rhand 32.4213 1.02416
rfingers 7.12502
rthumb 55.8696 -16.4662
lclavicle -2.68359e-015 -2.38542e-015
lhumerus -56.0586 -16.5994 87.5514
lradius 37.8673
lwrist 14.5252
lhand 25.2763 19.4586
lfingers 7.12502
lthumb 49.4147 40.9833
rfemur -21.572 -3.76904 31.9709
rtibia 43.2266
rfoot 25.0046 -25.2448
rtoes 19.5878
lfemur -50.7875 6.05472 -35.2324
ltibia 40.1839
lfoot -42.9306 27.6928
ltoes 14.2073
323
root 0.50087 16.3578 -13.4972 29.6807 -3.48445 -1.95587
lowerback -16.4526 0.64186 -3.12269
upperback -12.2888 1.20799 -0.241353
thorax -3.99564 0.806459 1.64882
lowerneck -16.6646 -0.397447 -2.34127
upperneck 31.7149 0.460236 -0.781261
head 13.4845 -0.193407 0.172608
rclavicle -1.51573e-015 3.97569e-016
rhumerus -65.7487 27.4093 -109.265
rradius 32.7306
rwrist -22.0472
rhand 33.0828 0.191193
rfingers 7.12502
rthumb 56.4551 -16.8399
lclavicle -1.51573e-015 3.97569e-016
lhumerus -56.2064 -17.0719 87.8654
lradius 38.1201
lwrist 13.8677
lhand 25.746 19.2559
lfingers 7.12502
lthumb 49.8452 40.5595
rfemur -21.5978 -3.67187 31.9566
rtibia 43.2361
rfoot 25.2207 -24.8095
rtoes 17.5812
lfemur -50.8011 6.16901 -35.3384
ltibia 40.2003
lfoot -42.7914 27.4629
ltoes 14.7101
324
root 0.499752 16.3566 -13.5001 29.6837 -3.43536 -1.91998
lowerback -16.6284 0.634251 -3.1053
upperback -12.2527 1.20253 -0.269696
thorax -3.86285 0.799111 1.61231
lowerneck -15.6889 -0.598137 -2.1283
upperneck 30.7802 0.17949 -1.17691
head 12.8832 -0.331454 -0.0589003
rclavicle -3.35449e-015 5.56597e-015
rhumerus -66.0668 27.8869 -109.773
rradius 33.5629
rwrist -22.1435
rhand 33.6269 -0.464799
rfingers 7.12502
rthumb 56.9348 -17.105
lclavicle -3.35449e-015 5.56597e-015
lhumerus -56.2296 -17.5718 88.1557
lradius 38.4638
lwrist 13.4057
lhand 25.9414 18.9923
lfingers 7.12502
lthumb 50.024 40.2024
rfemur -21.6333 -3.63142 31.9444
rtibia 43.2651
rfoot 25.2346 -24.5678
rtoes 16.6282
lfemur -50.8335 6.26994 -35.4445
ltibia 40.2002
lfoot -42.5977 27.5257
ltoes 14.4556
325
root 0.500293 16.3551 -13.5012 29.5757 -3.51526 -1.86451
lowerback -16.7939 0.610058 -3.18144
upperback -12.0683 1.1896 -0.207338
thorax -3.57697 0.793291 1.72514
lowerneck -15.4666 -0.62505 -2.15897
upperneck 30.4003 0.157386 -1.24865
head 12.6796 -0.349501 -0.0821359
rclavicle -2.24627e-014 -2.14687e-014
rhumerus -66.2465 28.6287 -110.185
rradius 34.2797
rwrist -22.2365
rhand 33.2773 0.141566
rfingers 7.12502
rthumb 56.6268 -16.7512
lclavicle -2.24627e-014 -2.14687e-014
lhumerus -56.1255 -18.0756 88.6406
lradius 38.9025
lwrist 13.0023
lhand 26.0906 19.2177
lfingers 7.12502
lthumb 50.1605 40.3558
rfemur -21.5495 -3.5749 31.8212
rtibia 43.3209
rfoot 25.312 -24.604
rtoes 17.2276
lfemur -50.7069 6.25539 -35.4847
ltibia 40.1788
lfoot -42.8024 27.4768
ltoes 14.7077
326
root 0.498544 16.3548 -13.5034 29.4706 -3.69174 -1.78295
lowerback -16.8127 0.635466 -3.32856
upperback -12.0154 1.24301 -0.1894
thorax -3.51747 0.828517 1.83476
lowerneck -15.3507 -0.568997 -2.17812
upperneck 30.3156 0.210976 -1.16009
head 12.6197 -0.31454 -0.0358896
rclavicle -5.39203e-015 -5.1684e-015
rhumerus -66.4738 28.9485 -110.332
rradius 34.9714
rwrist -21.9367
rhand 32.0966 1.57409
rfingers 7.12502
rthumb 55.5814 -16.1355
lclavicle -5.39203e-015 -5.1684e-015
lhumerus -56.2385 -18.6213 89.2269
lradius 39.2282
lwrist 12.5531
lhand 26.1877 19.4033
lfingers 7.12502
lthumb 50.2493 40.4941
rfemur -21.4867 -3.41394 31.6623
rtibia 43.383
rfoot 25.4903 -24.4753
rtoes 17.0946
lfemur -50.5331 6.08202 -35.4555
ltibia 40.1515
lfoot -43.3471 27.1697
ltoes 16.0151
327
root 0.496787 16.3537 -13.5109 29.4273 -3.68724 -1.74375
lowerback -16.7091 0.653803 -3.35403
upperback -12.0553 1.26595 -0.210705
thorax -3.61675 0.843106 1.82683
lowerneck -15.3377 -0.564653 -2.02219
upperneck 30.509 0.166333 -1.13718
head 12.6956 -0.315123 -0.0616303
rclavicle -3.35449e-015 5.56597e-015
rhumerus -66.645 29.1147 -110.428
rradius 35.6471
rwrist -21.685
rhand 31.5415 2.53518
rfingers 7.12502
rthumb 55.0872 -15.5402
lclavicle -3.35449e-015 5.56597e-015
lhumerus -56.4416 -19.2792 89.8075
lradius 39.4642
lwrist 12.0246
lhand 26.126 19.3697
lfingers 7.12502
lthumb 50.1929 40.4906
rfemur -21.4724 -3.36674 31.6363
rtibia 43.4388
rfoot 25.2742 -24.6353
rtoes 17.4303
lfemur -50.4812 6.05682 -35.476
ltibia 40.1303
lfoot -43.4725 27.1749
ltoes 15.7021
328
root 0.494091 16.351 -13.5179 29.4124 -3.66017 -1.67727
lowerback -16.6741 0.601725 -3.43162
upperback -12.0602 1.20561 -0.188207
thorax -3.64024 0.818699 1.88568
lowerneck -15.4801 -0.528009 -1.87864
upperneck 30.7853 0.183812 -1.13361
head 12.8393 -0.293594 -0.0840922
rclavicle 4.79568e-015 1.66979e-014
rhumerus -66.92 29.7225 -110.972
rradius 36.1651
rwrist -22.0415
rhand 31.1946 3.04313
rfingers 7.12502
rthumb 54.7776 -15.2552
lclavicle 4.79568e-015 1.66979e-014
lhumerus -56.5229 -19.7431 90.2261
lradius 39.8352
lwrist 11.4521
lhand 26.1369 19.6892
lfingers 7.12502
lthumb 50.2028 40.8047
rfemur -21.4824 -3.34169 31.6
rtibia 43.4978
rfoot 24.8315 -24.9313
rtoes 17.7756
lfemur -50.5621 6.34159 -35.6979
ltibia 40.096
lfoot -42.8699 27.6961
ltoes 13.737
